#!OML:ASF E:/inclinewalkrobotboard/Project1/Captureday1/Session1/subject1.ASF
:FULLY-SPECIFIED
:DEGREES
226
root 0 0 0 1.5383033557956396 -3.8621762894552454 1.8566386444117868
lowerback 12.24267270934213 0.956728256951086 0.020275494608161138
upperback -4.447450503914896 1.2107584683051904 -0.6307476081897289
thorax -11.738669941514193 0.5599545716596889 -0.9336169863431503
lowerneck -6.0635546456367315 1.8663909701323542 4.773893867971191
upperneck 18.102208048804727 3.4995968221406937 -8.584704371652085
head 6.645147579895932 1.308204940326017 -3.279627042891465
rclavicle 2.1963196379947466E-15 -6.776243372882528E-16
rhumerus 21.11310114068747 15.663909667001937 -47.83481370439851
rradius 73.2962259964943
rwrist 26.665302712971258
rhand -34.614004645555724 -57.17278214374036
rfingers 7.1250200000000286
rthumb -7.716494295265306 -87.13378222832222
lclavicle -7.1781125129019295E-16 -7.38171820083963E-16
lhumerus 23.19568450431656 -14.49422920321859 44.75378938792791
lradius 71.85663141571914
lwrist -22.233507175087283
lhand -45.75845654524186 -71.93938099842126
lfingers 7.1250200000000286
lthumb -18.51271026812997 -42.72190586869411
rfemur -25.13802473655999 -1.93436372226767 17.77616811510568
rtibia 50.54303158436086
rfoot -34.35336513727542 -18.380212919218728
rtoes -21.737900127437634
lfemur -28.116669570656455 2.164669059360136 -17.246305839850862
ltibia 50.74495062999144
lfoot -35.913845034996946 -0.0750079232654417
ltoes -21.98392427253636
227
root 0 0 0 1.5421658787736203 -3.8668243788104535 1.8534924362280534
lowerback 12.239907417527494 0.9591317879141497 0.022509341727437238
upperback -4.4464728320397064 1.214087122452737 -0.6305574973052847
thorax -11.735632193788216 0.5615363183114783 -0.9350583265081782
lowerneck -6.0673707421707865 1.865699845300681 4.772421142014205
upperneck 18.102895237516165 3.4984319337205223 -8.582604955297791
head 6.645967492218924 1.3076796139684128 -3.2788062700287766
rclavicle 2.199793411545256E-15 -6.710851890099285E-16
rhumerus 21.120241901550386 15.673513572880188 -47.841305996223795
rradius 73.3024262617454
rwrist 26.658307835785948
rhand -34.6145560992127 -57.17098895917081
rfingers 7.1250200000000286
rthumb -7.717055051644396 -87.13300136831643
lclavicle -7.172418589872722E-16 -7.322339032109253E-16
lhumerus 23.19233957260841 -14.491186735245591 44.75425891684198
lradius 71.8536389865282
lwrist -22.233573213954088
lhand -45.756954216966676 -71.93537305585754
lfingers 7.1250200000000286
lthumb -18.5112285748428 -42.718013629177946
rfemur -25.046883147387863 -1.8917430203121866 17.84280657347362
rtibia 50.28461992627733
rfoot -34.518273513335764 -18.36979924971656
rtoes -21.871056117919814
lfemur -28.112089530605516 2.113415304116583 -17.186970170418768
ltibia 50.54320320169587
lfoot -35.91440658559935 -0.04515767500287016
ltoes -22.11220161446431
228
root 0 0 0 1.5441727007243635 -3.870035519686731 1.8508126761931027
lowerback 12.23795438850157 0.9610680582413702 0.02477762886506829
upperback -4.445888815966009 1.2167980843726014 -0.6304304552229193
thorax -11.73359943829765 0.5628206871319348 -0.9364872502608994
lowerneck -6.069965084652501 1.8653692842936656 4.771863151725744
upperneck 18.105203968480577 3.4978409624680413 -8.58198431476068
head 6.647099599535868 1.307360947064545 -3.2785726406704994
rclavicle 2.191712153621688E-15 -6.758744843667742E-16
rhumerus 21.116314591236595 15.6673591639252 -47.83651160880314
rradius 73.29949848351725
rwrist 26.663342411419478
rhand -34.61508038101135 -57.1724725479563
rfingers 7.1250200000000286
rthumb -7.717540396531312 -87.13492273054746
lclavicle -7.230171206542307E-16 -7.323564318687649E-16
lhumerus 23.18455557504521 -14.479907081399114 44.752332159867265
lradius 71.8452820350665
lwrist -22.238588864587364
lhand -45.75513558724358 -71.93755610398772
lfingers 7.1250200000000286
lthumb -18.509371981221694 -42.72045591070976
rfemur -24.965517941215506 -1.8761843465233188 17.873924231051987
rtibia 50.193699150067374
rfoot -34.57125843269665 -18.342420990862557
rtoes -21.963109517004057
lfemur -28.099592958649936 2.0857952550374743 -17.135574615957648
ltibia 50.49094657903103
lfoot -35.813425236474494 -0.08815573924644049
ltoes -22.19896296148866
229
root 0 0 0 1.5444220395778396 -3.87170117021508 1.8490323419700112
lowerback 12.237058429137827 0.9622888331144414 0.02662598140033423
upperback -4.4457142973489425 1.2185350609253016 -0.6303926922750928
thorax -11.732760578303033 0.5636406030473793 -0.9376457967195608
lowerneck -6.071093226548326 1.8653689272133607 4.772044712943117
upperneck 18.108021626714944 3.4977889631458856 -8.58250404543675
head 6.648156038299359 1.3072632724535285 -3.278785992302022
rclavicle 2.177587423910974E-15 -6.878457057439518E-16
rhumerus 21.10604249434057 15.652295196343944 -47.82537652307884
rradius 73.29127041458773
rwrist 26.675133486637538
rhand -34.61546840122254 -57.17582435365673
rfingers 7.1250200000000286
rthumb -7.717866005848389 -87.13822394468231
lclavicle -7.319124534694326E-16 -7.370979174376272E-16
lhumerus 23.175459277919295 -14.465427285189854 44.74915417065881
lradius 71.83508373213465
lwrist -22.245950253401823
lhand -45.75352231124779 -71.9436429867564
lfingers 7.1250200000000286
lthumb -18.5076882888427 -42.72684104190459
rfemur -24.90991262062224 -1.8835771331224267 17.872588870076026
rtibia 50.24320548231144
rfoot -34.5334989913373 -18.309877367835806
rtoes -22.00480195450582
lfemur -28.086531358041327 2.081307212339586 -17.102252544406937
ltibia 50.55518061415833
lfoot -35.667922372115505 -0.1701382187127085
ltoes -22.23428655797757
230
root 0 0 0 1.5434136745266853 -3.871998133436284 1.8483140138115584
lowerback 12.237109938653717 0.9627518150021956 0.027742331168296275
upperback -4.445864085996076 1.219219488823469 -0.630444089244038
thorax -11.732949248307587 0.5639615793449727 -0.9383624888041515
lowerneck -6.070939396308314 1.865590094840431 4.772671447620311
upperneck 18.110470926128112 3.4981104000922745 -8.583652966894757
head 6.648893002121265 1.3073385296933338 -3.279242964327098
rclavicle 2.162782601026036E-15 -7.020557314121797E-16
rhumerus 21.094117908801792 15.63506990749932 -47.812783870907936
rradius 73.28157637693704
rwrist 26.688487478823227
rhand -34.61566890128313 -57.17960880769921
rfingers 7.1250200000000286
rthumb -7.718004280573522 -87.14163982670671
lclavicle -7.408240578589909E-16 -7.440595159004052E-16
lhumerus 23.16761615529269 -14.45217264159321 44.74586782578547
lradius 71.8260345575106
lwrist -22.25318496205729
lhand -45.75243091414239 -71.95098013393192
lfingers 7.1250200000000286
lthumb -18.50652023536835 -42.734428921042706
rfemur -24.885785445716373 -1.905336588341715 17.848741758255574
rtibia 50.37942801783622
rfoot -34.4412035825359 -18.281541760503018
rtoes -22.00152058483938
lfemur -28.0768565024761 2.0939512103529307 -17.090141762425958
ltibia 50.683236494931144
lfoot -35.528455766994135 -0.2580899602863873
ltoes -22.224069613236555
